<svg width="237" height="26" viewBox="0 0 237 26" fill="none" xmlns="http://www.w3.org/2000/svg">
<path d="M15.4728 0.899264C16.8804 1.4296 18.1496 2.28275 19.2804 3.45871C21.7034 5.90286 22.9149 9.02146 22.9149 12.8145C22.9149 16.6076 21.7034 19.7377 19.2804 22.2049C18.1496 23.3809 16.8804 24.234 15.4728 24.7643C14.019 25.3638 12.5305 25.6636 11.0075 25.6636H1.21151C0.888444 25.6636 0.605757 25.5425 0.363454 25.3004C0.121152 25.0583 0 24.7759 0 24.4531V21.9628C0 21.6169 0.121152 21.3229 0.363454 21.0808C0.605757 20.8387 0.888444 20.7177 1.21151 20.7177H10.9036C12.9574 20.7177 14.6247 19.9683 15.9055 18.4695C17.1862 16.9707 17.8266 15.0915 17.8266 12.8318C17.8266 10.5721 17.1862 8.69288 15.9055 7.19411C14.6247 5.69534 12.9574 4.94595 10.9036 4.94595H1.21151C0.888444 4.94595 0.605757 4.8249 0.363454 4.58279C0.121152 4.34068 0 4.04669 0 3.70082V1.21055C0 0.887734 0.121152 0.605274 0.363454 0.363164C0.605757 0.121055 0.888444 0 1.21151 0H11.0075C12.5305 0 14.019 0.299755 15.4728 0.899264ZM39.0938 20.856C39.3708 20.9482 39.59 21.1039 39.7515 21.3229C39.9131 21.542 39.9938 21.7899 39.9938 22.0665V24.7297C39.9938 25.0987 39.8438 25.41 39.5438 25.6636C39.3131 25.8481 39.0592 25.9403 38.7823 25.9403C38.6669 25.9403 38.5862 25.9288 38.54 25.9057C36.3939 25.4907 34.5478 24.4992 33.0017 22.9312C30.9248 20.8099 29.8863 18.0199 29.8863 14.5612V1.24513C29.8863 0.899263 30.0075 0.605274 30.2498 0.363164C30.4921 0.121055 30.7748 0 31.0979 0H33.7632C34.1093 0 34.4036 0.121055 34.6459 0.363164C34.8882 0.605274 35.0093 0.899263 35.0093 1.24513V14.6303C35.0093 16.8208 35.6324 18.4926 36.8785 19.6455C37.5247 20.245 38.2631 20.6485 39.0938 20.856ZM51.0359 0C51.3821 0 51.6763 0.121055 51.9186 0.363164C52.1609 0.605274 52.2821 0.899263 52.2821 1.24513V14.5612C52.2821 18.0199 51.2436 20.8099 49.1667 22.9312C47.6206 24.4992 45.7745 25.4907 43.6284 25.9057C43.5822 25.9288 43.5015 25.9403 43.3861 25.9403C43.1092 25.9403 42.8553 25.8481 42.6245 25.6636C42.3246 25.433 42.1746 25.1102 42.1746 24.6952V22.032C42.1746 21.7783 42.2553 21.542 42.4169 21.3229C42.5784 21.1039 42.7976 20.9482 43.0745 20.856C43.9514 20.6024 44.6899 20.1988 45.2899 19.6455C46.536 18.5387 47.1591 16.867 47.1591 14.6303V1.24513C47.1591 0.899263 47.2802 0.605274 47.5225 0.363164C47.7648 0.121055 48.0591 0 48.4052 0H51.0359ZM77.08 15.7371L82.3069 23.7267C82.5607 24.1418 82.5722 24.5568 82.3415 24.9719C82.2492 25.1563 82.1049 25.3062 81.9088 25.4215C81.7126 25.5368 81.5107 25.5944 81.303 25.5944H78.1531C77.9454 25.5944 77.7493 25.5425 77.5646 25.4388C77.38 25.335 77.2416 25.2024 77.1493 25.041L71.8878 16.7056H65.7264V24.3839C65.7264 24.7067 65.6053 24.9892 65.363 25.2313C65.1207 25.4734 64.838 25.5944 64.5149 25.5944H61.8842C61.5611 25.5944 61.2784 25.4734 61.0361 25.2313C60.7938 24.9892 60.6727 24.7067 60.6727 24.3839V13.0047C60.6727 12.6819 60.7938 12.3995 61.0361 12.1574C61.2784 11.9152 61.5611 11.7942 61.8842 11.7942H72.5455C74.5762 11.7942 75.9262 11.2177 76.5954 10.0648C76.8262 9.69591 76.9416 9.16557 76.9416 8.47383C76.9416 7.3901 76.5839 6.53696 75.8685 5.91439C75.1301 5.2457 74.0686 4.91136 72.684 4.91136H61.8842C61.5611 4.91136 61.2784 4.79031 61.0361 4.5482C60.7938 4.30609 60.6727 4.02363 60.6727 3.70082V1.21055C60.6727 0.887734 60.7938 0.605274 61.0361 0.363164C61.2784 0.121055 61.5611 0 61.8842 0H72.9955C75.6954 0 77.8531 0.760916 79.4684 2.28275C81.153 3.80458 81.9953 5.86827 81.9953 8.47383C81.9953 10.1571 81.6261 11.5924 80.8876 12.7799C80.1492 13.9674 79.0761 14.8724 77.6685 15.495L77.08 15.7371ZM99.5934 0.276696C99.8704 0.507277 100.009 0.81856 100.009 1.21055V3.80458C100.009 4.10433 99.9223 4.36373 99.7492 4.58279C99.5761 4.80184 99.3396 4.94595 99.0396 5.01512C97.5627 5.31488 96.305 6.01815 95.2666 7.12494C93.8589 8.60065 93.1551 10.5202 93.1551 12.8837C93.1551 15.2471 93.8589 17.1782 95.2666 18.677C96.305 19.7607 97.5627 20.4525 99.0396 20.7522C99.3396 20.8214 99.5761 20.9655 99.7492 21.1846C99.9223 21.4036 100.009 21.663 100.009 21.9628V24.5568C100.009 24.9257 99.8704 25.237 99.5934 25.4907C99.3396 25.6751 99.0742 25.7674 98.7973 25.7674H98.5896C95.9127 25.3293 93.6166 24.1187 91.7013 22.1357C89.3013 19.6685 88.1014 16.596 88.1014 12.9183C88.1014 9.24051 89.3013 6.14497 91.7013 3.63164C93.5705 1.69477 95.8666 0.495748 98.5896 0.034587C98.9588 -0.0345871 99.2934 0.0461158 99.5934 0.276696ZM110.462 3.63164C112.862 6.14497 114.062 9.24051 114.062 12.9183C114.062 16.596 112.862 19.6685 110.462 22.1357C108.547 24.1187 106.251 25.3293 103.574 25.7674H103.366C103.09 25.7674 102.824 25.6751 102.57 25.4907C102.293 25.237 102.155 24.9257 102.155 24.5568V21.9628C102.155 21.663 102.241 21.4036 102.415 21.1846C102.588 20.9655 102.824 20.8214 103.124 20.7522C104.601 20.4525 105.859 19.7607 106.897 18.677C108.305 17.1782 109.009 15.2471 109.009 12.8837C109.009 10.5202 108.305 8.60065 106.897 7.12494C105.859 6.01815 104.601 5.31488 103.124 5.01512C102.824 4.94595 102.588 4.80184 102.415 4.58279C102.241 4.36373 102.155 4.10433 102.155 3.80458V1.21055C102.155 0.81856 102.299 0.507277 102.588 0.276696C102.876 0.0461158 103.205 -0.0345871 103.574 0.034587C106.297 0.495748 108.593 1.69477 110.462 3.63164ZM154.333 0.518806C154.564 0.841619 154.622 1.19902 154.506 1.59101L147.202 25.0064C147.133 25.2601 146.989 25.4676 146.77 25.629C146.551 25.7904 146.303 25.8711 146.026 25.8711H143.014C142.76 25.8711 142.524 25.7904 142.305 25.629C142.085 25.4676 141.941 25.2716 141.872 25.041L136.68 8.99264L131.522 25.041C131.43 25.2947 131.28 25.4964 131.072 25.6463C130.864 25.7962 130.622 25.8711 130.345 25.8711H127.334C126.918 25.8711 126.584 25.7097 126.33 25.3869C126.099 24.9949 126.053 24.626 126.191 24.2801L134.014 0.83009C134.084 0.599509 134.228 0.403516 134.447 0.242109C134.666 0.0807029 134.903 0 135.157 0H138.203C138.48 0 138.722 0.0807029 138.93 0.242109C139.137 0.403516 139.287 0.611038 139.38 0.864677L144.503 16.7747L149.349 0.864677C149.441 0.611038 149.597 0.403516 149.816 0.242109C150.035 0.0807029 150.272 0 150.526 0H153.329C153.768 0 154.102 0.172936 154.333 0.518806ZM124.011 0.864677L125.984 7.33246C126.122 7.72444 126.064 8.08761 125.811 8.42195C125.557 8.75629 125.222 8.92346 124.807 8.92346H122.072C121.795 8.92346 121.547 8.84276 121.328 8.68135C121.109 8.51995 120.965 8.31242 120.895 8.05879L118.888 1.59101C118.749 1.19902 118.807 0.835854 119.061 0.501512C119.315 0.167171 119.638 0 120.03 0H122.834C123.111 0 123.359 0.0807029 123.578 0.242109C123.797 0.403516 123.941 0.611038 124.011 0.864677ZM183.527 23.9688C183.689 24.3378 183.648 24.7125 183.406 25.0929C183.164 25.4734 182.835 25.6636 182.42 25.6636H159.366C159.158 25.6636 158.962 25.6117 158.778 25.508C158.593 25.4042 158.455 25.2716 158.362 25.1102C158.108 24.7413 158.074 24.3608 158.258 23.9688L159.331 21.444C159.424 21.2134 159.574 21.0289 159.781 20.8906C159.989 20.7522 160.208 20.6831 160.439 20.6831H176.57L170.893 7.12494L166.254 18.1928C166.162 18.4234 166.018 18.6021 165.822 18.7289C165.626 18.8557 165.401 18.9191 165.147 18.9191H162.239C161.801 18.9191 161.455 18.7347 161.201 18.3657C161.108 18.2043 161.051 18.0199 161.028 17.8123C161.005 17.6048 161.028 17.4088 161.097 17.2244L168.124 0.760916C168.216 0.530335 168.36 0.34587 168.556 0.207522C168.752 0.0691739 168.977 0 169.231 0H172.554C172.808 0 173.033 0.0691739 173.229 0.207522C173.425 0.34587 173.57 0.530335 173.662 0.760916L183.527 23.9688ZM211.267 0.553393C211.521 0.899264 211.567 1.27972 211.406 1.69477L201.921 25.1102C201.829 25.3408 201.679 25.5253 201.471 25.6636C201.264 25.802 201.033 25.8711 200.779 25.8711H197.733C197.479 25.8711 197.248 25.802 197.041 25.6636C196.833 25.5253 196.683 25.3408 196.591 25.1102L187.106 1.69477C186.922 1.30278 186.956 0.922322 187.21 0.553393C187.464 0.184465 187.799 0 188.214 0H199.775C200.098 0 200.381 0.121055 200.623 0.363164C200.866 0.605274 200.987 0.899263 200.987 1.24513V3.76999C200.987 4.11586 200.866 4.40985 200.623 4.65196C200.381 4.89407 200.098 5.01512 199.775 5.01512H193.96L199.256 18.3311L206.214 0.760916C206.306 0.530335 206.456 0.34587 206.664 0.207522C206.871 0.0691739 207.102 0 207.356 0H210.264C210.471 0 210.667 0.0518809 210.852 0.155642C211.037 0.259403 211.175 0.391987 211.267 0.553393ZM235.788 20.6831C236.135 20.6831 236.423 20.8041 236.654 21.0462C236.885 21.2883 237 21.5823 237 21.9282V24.4531C237 24.7759 236.885 25.0583 236.654 25.3004C236.423 25.5425 236.135 25.6636 235.788 25.6636H218.689C218.366 25.6636 218.083 25.5425 217.841 25.3004C217.598 25.0583 217.477 24.7759 217.477 24.4531V21.9282C217.477 21.5823 217.598 21.2883 217.841 21.0462C218.083 20.8041 218.366 20.6831 218.689 20.6831H235.788ZM218.689 15.3221C218.366 15.3221 218.083 15.201 217.841 14.9589C217.598 14.7168 217.477 14.4343 217.477 14.1115V11.5175C217.477 11.1947 217.598 10.9122 217.841 10.6701C218.083 10.428 218.366 10.3069 218.689 10.3069H234.231C234.577 10.3069 234.871 10.428 235.113 10.6701C235.356 10.9122 235.477 11.1947 235.477 11.5175V14.1115C235.477 14.4343 235.356 14.7168 235.113 14.9589C234.871 15.201 234.577 15.3221 234.231 15.3221H218.689ZM235.788 0C236.135 0 236.423 0.121055 236.654 0.363164C236.885 0.605274 237 0.887734 237 1.21055V3.7354C237 4.08127 236.885 4.37526 236.654 4.61737C236.423 4.85948 236.135 4.98054 235.788 4.98054H218.689C218.366 4.98054 218.083 4.85948 217.841 4.61737C217.598 4.37526 217.477 4.08127 217.477 3.7354V1.21055C217.477 0.887734 217.598 0.605274 217.841 0.363164C218.083 0.121055 218.366 0 218.689 0H235.788Z" fill="#E9E9E9"/>
</svg>
