<svg width="66" height="28" viewBox="0 0 66 28" fill="none" xmlns="http://www.w3.org/2000/svg">
<path d="M14.2344 1.75781C14.2344 1.80469 14.1523 2.08594 13.9883 2.60156C13.8477 3.09375 13.6484 3.73828 13.3906 4.53516C13.1328 5.30859 12.8281 6.1875 12.4766 7.17188C12.1484 8.15625 11.7969 9.17578 11.4219 10.2305C11.0469 11.2617 10.6602 12.2812 10.2617 13.2891C9.88672 14.2969 9.53516 15.1992 9.20703 15.9961C9.16016 17.6133 9.10156 19.125 9.03125 20.5312C8.96094 21.9375 8.89062 23.168 8.82031 24.2227C8.75 25.2773 8.67969 26.1211 8.60938 26.7539C8.53906 27.3633 8.48047 27.6797 8.43359 27.7031C8.31641 27.7969 8.12891 27.7617 7.87109 27.5977C7.61328 27.457 7.34375 27.2578 7.0625 27C6.80469 26.7422 6.55859 26.4609 6.32422 26.1562C6.11328 25.8516 5.97266 25.5938 5.90234 25.3828C5.87891 25.2891 5.84375 24.9961 5.79688 24.5039C5.75 23.9883 5.69141 23.3086 5.62109 22.4648C5.55078 21.5977 5.46875 20.5898 5.375 19.4414C5.30469 18.293 5.23438 17.0273 5.16406 15.6445C4.71875 14.6602 4.25 13.5 3.75781 12.1641C3.33594 11.0156 2.85547 9.62109 2.31641 7.98047C1.80078 6.33984 1.27344 4.45312 0.734375 2.32031C0.734375 2.10938 0.863281 1.89844 1.12109 1.6875C1.37891 1.45313 1.69531 1.25391 2.07031 1.08984C2.44531 0.925781 2.84375 0.796875 3.26562 0.703125C3.6875 0.609375 4.0625 0.597656 4.39062 0.667969C4.48438 0.808594 4.66016 1.34766 4.91797 2.28516C5.01172 2.68359 5.12891 3.1875 5.26953 3.79688C5.43359 4.38281 5.60938 5.12109 5.79688 6.01172C5.98438 6.87891 6.19531 7.89844 6.42969 9.07031C6.6875 10.2422 6.98047 11.6016 7.30859 13.1484C7.66016 11.6484 7.97656 10.3242 8.25781 9.17578C8.53906 8.02734 8.78516 7.03125 8.99609 6.1875C9.23047 5.32031 9.42969 4.59375 9.59375 4.00781C9.78125 3.39844 9.93359 2.89453 10.0508 2.49609C10.332 1.55859 10.5547 1.00781 10.7188 0.84375C10.8828 0.75 11.1523 0.714844 11.5273 0.738281C11.9258 0.738281 12.3125 0.796875 12.6875 0.914062C13.0859 1.00781 13.4375 1.13672 13.7422 1.30078C14.0469 1.44141 14.2109 1.59375 14.2344 1.75781ZM21.1953 7.76953C21.3594 7.91016 21.5117 8.17969 21.6523 8.57812C21.8164 8.97656 21.957 9.45703 22.0742 10.0195C22.1914 10.582 22.2969 11.1914 22.3906 11.8477C22.4844 12.5039 22.5664 13.1484 22.6367 13.7812C22.707 14.4141 22.7539 15.0117 22.7773 15.5742C22.8242 16.1133 22.8594 16.5586 22.8828 16.9102C22.9062 17.332 22.918 17.7773 22.918 18.2461C22.9414 18.6914 22.9414 19.125 22.918 19.5469C22.918 19.9453 22.8945 20.3086 22.8477 20.6367C22.8242 20.9648 22.7773 21.2109 22.707 21.375C22.5664 21.7266 22.3203 21.9727 21.9688 22.1133C21.6406 22.2305 21.2656 22.3125 20.8438 22.3594C20.6328 22.3828 20.2695 22.3945 19.7539 22.3945C19.2617 22.3711 18.7227 22.3477 18.1367 22.3242C17.5742 22.2773 17.0352 22.2305 16.5195 22.1836C16.0039 22.1367 15.6172 22.0898 15.3594 22.043C14.8438 21.9258 14.4688 21.7734 14.2344 21.5859C14.0234 21.3984 13.8125 21.1289 13.6016 20.7773C13.5312 20.6367 13.4727 20.2852 13.4258 19.7227C13.3789 19.1367 13.3438 18.4453 13.3203 17.6484C13.3203 16.8281 13.332 15.9492 13.3555 15.0117C13.3789 14.0742 13.4141 13.1836 13.4609 12.3398C13.5312 11.4961 13.6016 10.7578 13.6719 10.125C13.7656 9.49219 13.8828 9.07031 14.0234 8.85938C14.2578 8.53125 14.6562 8.22656 15.2188 7.94531C15.8047 7.66406 16.332 7.44141 16.8008 7.27734C17.0352 7.20703 17.3398 7.16016 17.7148 7.13672C18.1133 7.08984 18.5234 7.08984 18.9453 7.13672C19.3906 7.16016 19.8125 7.23047 20.2109 7.34766C20.6094 7.44141 20.9375 7.58203 21.1953 7.76953ZM19.2266 18.668C19.2734 18.5742 19.3203 18.293 19.3672 17.8242C19.4375 17.332 19.4844 16.7461 19.5078 16.0664C19.5547 15.3867 19.5781 14.6602 19.5781 13.8867C19.6016 13.1133 19.6133 12.3984 19.6133 11.7422C19.6133 11.0859 19.5898 10.5352 19.543 10.0898C19.4961 9.62109 19.4375 9.35156 19.3672 9.28125C19.25 9.1875 19.0742 9.15234 18.8398 9.17578C18.6289 9.17578 18.4062 9.21094 18.1719 9.28125C17.9375 9.32812 17.7266 9.39844 17.5391 9.49219C17.3516 9.5625 17.2227 9.63281 17.1523 9.70312C16.8477 9.96094 16.6836 10.3828 16.6602 10.9688C16.6602 11.1328 16.6367 11.6016 16.5898 12.375C16.5664 13.125 16.5547 13.9453 16.5547 14.8359C16.5547 15.7031 16.5664 16.5117 16.5898 17.2617C16.6367 18.0117 16.7188 18.4688 16.8359 18.6328C16.9531 18.7969 17.1172 18.9258 17.3281 19.0195C17.5625 19.0898 17.7969 19.125 18.0312 19.125C18.2891 19.125 18.5234 19.0898 18.7344 19.0195C18.9688 18.9258 19.1328 18.8086 19.2266 18.668ZM32.9727 11.0039C33.207 11.1445 33.4297 11.4023 33.6406 11.7773C33.875 12.1523 34.0859 12.5859 34.2734 13.0781C34.4609 13.5469 34.6133 14.0625 34.7305 14.625C34.8477 15.1641 34.9062 15.6797 34.9062 16.1719C34.9062 16.5 34.8594 16.9922 34.7656 17.6484C34.6719 18.2812 34.5547 18.9844 34.4141 19.7578C34.2734 20.5078 34.1211 21.2812 33.957 22.0781C33.793 22.875 33.6406 23.6016 33.5 24.2578C33.3594 24.9141 33.2305 25.4648 33.1133 25.9102C32.9961 26.3555 32.9258 26.6016 32.9023 26.6484C32.8555 26.7188 32.7148 26.7656 32.4805 26.7891C32.2695 26.8125 32.0352 26.8008 31.7773 26.7539C31.543 26.707 31.3203 26.6367 31.1094 26.543C30.8984 26.4492 30.7695 26.332 30.7227 26.1914C30.6992 26.0977 30.6875 25.8047 30.6875 25.3125C30.7109 24.7969 30.7344 24.1875 30.7578 23.4844C30.8047 22.7812 30.8516 22.0195 30.8984 21.1992C30.9688 20.3789 31.0273 19.6172 31.0742 18.9141C31.1211 18.1875 31.1562 17.5664 31.1797 17.0508C31.2266 16.5352 31.25 16.2305 31.25 16.1367C31.2734 15.7617 31.2383 15.3984 31.1445 15.0469C31.0742 14.6719 30.9688 14.3555 30.8281 14.0977C30.7109 13.8398 30.5703 13.6406 30.4062 13.5C30.2656 13.3594 30.125 13.3125 29.9844 13.3594C29.7734 13.4062 29.5625 13.4648 29.3516 13.5352C29.1641 13.6055 29 13.6641 28.8594 13.7109C28.6719 13.7812 28.5078 13.8516 28.3672 13.9219C28.3438 15.6562 28.3086 17.3555 28.2617 19.0195C28.2148 20.6836 28.1562 22.1836 28.0859 23.5195C28.0156 24.832 27.9336 25.8984 27.8398 26.7188C27.7695 27.5156 27.6875 27.9258 27.5938 27.9492C27.4062 27.9727 27.1953 27.8906 26.9609 27.7031C26.75 27.5156 26.5391 27.2812 26.3281 27C26.1172 26.7422 25.9297 26.4609 25.7656 26.1562C25.625 25.8516 25.5312 25.5938 25.4844 25.3828C25.2969 23.0859 25.1445 21.0352 25.0273 19.2305C24.9102 17.4023 24.8164 15.7852 24.7461 14.3789C24.6758 12.9727 24.6172 11.7539 24.5703 10.7227C24.5469 9.69141 24.5352 8.8125 24.5352 8.08594C24.5117 6.375 24.5352 5.19141 24.6055 4.53516C24.6992 4.04297 24.9102 3.57422 25.2383 3.12891C25.5664 2.66016 25.918 2.25 26.293 1.89844C26.6914 1.54688 27.0547 1.28906 27.3828 1.125C27.7344 0.9375 27.9688 0.890625 28.0859 0.984375C28.1562 1.05469 28.2148 1.38281 28.2617 1.96875C28.332 2.53125 28.3789 3.29297 28.4023 4.25391C28.4258 5.19141 28.4375 6.28125 28.4375 7.52344C28.4375 8.74219 28.4258 10.0312 28.4023 11.3906C29.3398 11.0156 30.207 10.7812 31.0039 10.6875C31.8242 10.5938 32.4805 10.6992 32.9727 11.0039ZM45.9805 8.50781C46.1211 8.67188 46.25 8.84766 46.3672 9.03516C46.4844 9.19922 46.5898 9.43359 46.6836 9.73828C46.7773 10.0195 46.8477 10.3945 46.8945 10.8633C46.9648 11.332 47 11.9414 47 12.6914C47 13.8867 46.9648 15.0938 46.8945 16.3125C46.8477 17.5078 46.8008 18.5625 46.7539 19.4766C46.7305 20.2969 46.707 21.0586 46.6836 21.7617C46.6602 22.4648 46.6367 23.0859 46.6133 23.625C46.5898 24.1406 46.5547 24.5508 46.5078 24.8555C46.4844 25.1602 46.4609 25.3242 46.4375 25.3477C46.3438 25.418 46.1914 25.3945 45.9805 25.2773C45.793 25.1367 45.582 24.9609 45.3477 24.75C45.1367 24.5391 44.9375 24.3164 44.75 24.082C44.5625 23.8477 44.4453 23.6602 44.3984 23.5195C44.3984 23.4023 44.3633 23.0625 44.293 22.5C43.7305 22.8281 43.1094 23.0625 42.4297 23.2031C41.75 23.3203 41.0703 23.3672 40.3906 23.3438C39.7344 23.2969 39.125 23.168 38.5625 22.957C38 22.7461 37.5781 22.4648 37.2969 22.1133C37.1797 21.9727 37.0742 21.7617 36.9805 21.4805C36.9102 21.1992 36.8398 20.8828 36.7695 20.5312C36.7227 20.1562 36.6758 19.7695 36.6289 19.3711C36.582 18.9492 36.5469 18.5625 36.5234 18.2109C36.4766 17.2969 36.5938 16.5117 36.875 15.8555C37.1562 15.1758 37.6719 14.6719 38.4219 14.3438C38.75 14.2031 39.1836 14.1328 39.7227 14.1328C40.2852 14.1094 40.8359 14.1328 41.375 14.2031C41.9375 14.25 42.4414 14.3203 42.8867 14.4141C43.332 14.4844 43.6133 14.543 43.7305 14.5898C43.6367 13.3945 43.5664 12.3633 43.5195 11.4961C43.4727 10.6055 43.3789 10.0312 43.2383 9.77344C43.1211 9.60938 42.9805 9.44531 42.8164 9.28125C42.6758 9.16406 42.4883 9.03516 42.2539 8.89453C42.0195 8.75391 41.7383 8.64844 41.4102 8.57812C41.1523 8.53125 40.918 8.63672 40.707 8.89453C40.5195 9.12891 40.3438 9.55078 40.1797 10.1602C40.0391 10.7461 39.957 11.6484 39.9336 12.8672C39.1133 12.8906 38.4805 12.8906 38.0352 12.8672C37.6133 12.8203 37.2969 12.7734 37.0859 12.7266C36.8281 12.6797 36.6758 12.6211 36.6289 12.5508C36.582 12.457 36.6055 12.1172 36.6992 11.5312C36.793 10.9219 36.9219 10.2656 37.0859 9.5625C37.2734 8.85938 37.4844 8.19141 37.7188 7.55859C37.9766 6.92578 38.2461 6.52734 38.5273 6.36328C39.0898 6.03516 39.7578 5.91797 40.5312 6.01172C41.3281 6.10547 42.1016 6.30469 42.8516 6.60938C43.6016 6.91406 44.2695 7.25391 44.8555 7.62891C45.4414 8.00391 45.8164 8.29688 45.9805 8.50781ZM43.8008 18.7734C43.8008 18.6562 43.8125 18.5039 43.8359 18.3164C43.8594 18.1055 43.8711 17.8945 43.8711 17.6836C43.8711 17.4727 43.8594 17.2734 43.8359 17.0859C43.8359 16.8984 43.8125 16.7578 43.7656 16.6641C43.6953 16.5234 43.4844 16.4062 43.1328 16.3125C42.8047 16.2188 42.4297 16.1602 42.0078 16.1367C41.5859 16.0898 41.1875 16.0781 40.8125 16.1016C40.4375 16.1016 40.1797 16.1484 40.0391 16.2422C39.8516 16.3594 39.7109 16.5234 39.6172 16.7344C39.5469 16.9453 39.5 17.2734 39.4766 17.7188C39.4766 17.9297 39.4883 18.1523 39.5117 18.3867C39.5352 18.6211 39.5586 18.8555 39.582 19.0898C39.6289 19.3008 39.6758 19.4883 39.7227 19.6523C39.793 19.8164 39.8633 19.9219 39.9336 19.9688C40.0977 20.0859 40.3789 20.1914 40.7773 20.2852C41.1992 20.3555 41.6211 20.3789 42.043 20.3555C42.4648 20.3086 42.8516 20.168 43.2031 19.9336C43.5547 19.6992 43.7539 19.3125 43.8008 18.7734ZM59.2344 12.2695C59.2344 12.6445 59.1875 13.1836 59.0938 13.8867C59.0234 14.5898 58.918 15.3633 58.7773 16.207C58.6367 17.0273 58.4844 17.8828 58.3203 18.7734C58.1797 19.6406 58.0273 20.4375 57.8633 21.1641C57.7227 21.8906 57.5938 22.5 57.4766 22.9922C57.3828 23.4844 57.3242 23.7539 57.3008 23.8008C57.2539 23.8711 57.125 23.918 56.9141 23.9414C56.7266 23.9414 56.5039 23.918 56.2461 23.8711C56.0117 23.8242 55.7891 23.7539 55.5781 23.6602C55.3906 23.5664 55.2734 23.4492 55.2266 23.3086C55.2031 23.2148 55.1914 22.8867 55.1914 22.3242C55.2148 21.7617 55.2383 21.0938 55.2617 20.3203C55.3086 19.5234 55.3555 18.6797 55.4023 17.7891C55.4492 16.875 55.4961 16.0312 55.543 15.2578C55.6133 14.4609 55.6602 13.7812 55.6836 13.2188C55.7305 12.6562 55.7539 12.3164 55.7539 12.1992C55.7539 11.7773 55.707 11.3789 55.6133 11.0039C55.543 10.6055 55.4492 10.2656 55.332 9.98438C55.2148 9.70312 55.0742 9.49219 54.9102 9.35156C54.7695 9.1875 54.6406 9.12891 54.5234 9.17578C54.2188 9.22266 53.9609 9.30469 53.75 9.42188C53.5391 9.51562 53.3633 9.62109 53.2227 9.73828C53.0586 9.87891 52.9297 10.043 52.8359 10.2305C52.8125 10.2773 52.7656 10.418 52.6953 10.6523C52.6484 10.8867 52.625 11.1562 52.625 11.4609C52.625 11.5547 52.625 11.8945 52.625 12.4805C52.625 13.043 52.6133 13.7227 52.5898 14.5195C52.5898 15.3164 52.5781 16.1836 52.5547 17.1211C52.5547 18.0352 52.543 18.8906 52.5195 19.6875C52.5195 20.4609 52.5078 21.1289 52.4844 21.6914C52.4609 22.2539 52.4375 22.5703 52.4141 22.6406C52.3672 22.7812 52.25 22.9805 52.0625 23.2383C51.875 23.4727 51.6641 23.6953 51.4297 23.9062C51.1953 24.1172 50.9727 24.2812 50.7617 24.3984C50.5508 24.4922 50.4102 24.4688 50.3398 24.3281C50.2695 24.2578 50.1992 23.918 50.1289 23.3086C50.0586 22.6758 49.9766 21.9141 49.8828 21.0234C49.8125 20.1094 49.7305 19.125 49.6367 18.0703C49.543 16.9922 49.4609 15.9609 49.3906 14.9766C49.3203 13.9922 49.2617 13.1016 49.2148 12.3047C49.168 11.5078 49.1328 10.9336 49.1094 10.582C49.0859 10.0898 49.0625 9.53906 49.0391 8.92969C49.0156 8.29688 48.9922 7.71094 48.9688 7.17188C48.9688 6.60938 48.9688 6.12891 48.9688 5.73047C48.9922 5.30859 49.0391 5.05078 49.1094 4.95703C49.1562 4.86328 49.3086 4.83984 49.5664 4.88672C49.8477 4.93359 50.1406 5.02734 50.4453 5.16797C50.7734 5.28516 51.0781 5.4375 51.3594 5.625C51.6406 5.78906 51.8281 5.95313 51.9219 6.11719C51.9688 6.25781 52.0273 6.42187 52.0977 6.60938C52.168 6.77344 52.2266 7.05469 52.2734 7.45312C52.6719 7.21875 53.1055 7.00781 53.5742 6.82031C54.043 6.60938 54.5 6.45703 54.9453 6.36328C55.4141 6.24609 55.8594 6.21094 56.2812 6.25781C56.7031 6.28125 57.0781 6.39844 57.4062 6.60938C57.6172 6.77344 57.8281 7.05469 58.0391 7.45312C58.2734 7.85156 58.4727 8.32031 58.6367 8.85938C58.8242 9.39844 58.9648 9.97266 59.0586 10.582C59.1758 11.168 59.2344 11.7305 59.2344 12.2695ZM64.9297 11.8828C64.9766 12 65 12.375 65 13.0078C65.0234 13.6172 65.0234 14.3672 65 15.2578C65 16.125 64.9766 17.0625 64.9297 18.0703C64.8828 19.0547 64.8242 19.9922 64.7539 20.8828C64.707 21.75 64.6484 22.5 64.5781 23.1328C64.5078 23.7422 64.4375 24.1055 64.3672 24.2227C64.1562 24.5508 63.8398 24.7617 63.418 24.8555C62.9961 24.9258 62.6914 24.9375 62.5039 24.8906C62.4102 24.8906 62.3047 24.6211 62.1875 24.082C62.0938 23.543 62 22.8633 61.9062 22.043C61.8125 21.2227 61.7305 20.332 61.6602 19.3711C61.5898 18.4102 61.5312 17.4961 61.4844 16.6289C61.4375 15.7383 61.4141 14.9648 61.4141 14.3086C61.4141 13.6523 61.4375 13.2305 61.4844 13.043C61.5547 12.7383 61.7539 12.4688 62.082 12.2344C62.4336 12 62.7969 11.8242 63.1719 11.707C63.5703 11.5898 63.9336 11.543 64.2617 11.5664C64.6133 11.5664 64.8359 11.6719 64.9297 11.8828ZM65.1055 6.1875C65.1992 6.375 65.2344 6.63281 65.2109 6.96094C65.2109 7.28906 65.1758 7.62891 65.1055 7.98047C65.0352 8.33203 64.9414 8.67188 64.8242 9C64.707 9.32812 64.5898 9.58594 64.4727 9.77344C64.2383 10.1016 63.8867 10.3125 63.418 10.4062C62.9727 10.4766 62.6445 10.4883 62.4336 10.4414C62.2695 10.418 62.1055 10.3125 61.9414 10.125C61.7773 9.91406 61.6367 9.66797 61.5195 9.38672C61.4023 9.08203 61.3203 8.75391 61.2734 8.40234C61.2266 8.05078 61.2383 7.72266 61.3086 7.41797C61.3789 7.11328 61.6016 6.84375 61.9766 6.60938C62.3516 6.35156 62.75 6.16406 63.1719 6.04688C63.5938 5.90625 63.9922 5.84766 64.3672 5.87109C64.7422 5.87109 64.9883 5.97656 65.1055 6.1875Z" fill="white"/>
</svg>
